custom-analysis
version=1
nRows=4
nColumns=98
inDegrees=no

This file contains tibia displacement and acting force.

Units are S.I. units (seconds, meters, Newtons, ...)
Angles are in degrees.

endheader
time	APT	SIT	knee_angle	aACL_R_force	pACL_R_force	aPCL_R_force	pPCL_R_force	aMCL_R_force	mMCL_R_force	pMCL_R_force	aLCL_R_force	mLCL_R_force	pLCL_R_force	aPCL_L_force	pPCL_L_force	aMCL_L_force	aLCL_L_force	aACL_R_length	pACL_R_length	aPCL_R_length	pPCL_R_length	aMCL_R_length	mMCL_R_length	pMCL_R_length	aLCL_R_length	mLCL_R_length	pLCL_R_length	aPCL_L_length	pPCL_L_length	aMCL_L_length	aLCL_L_length	aACL_R_strain	pACL_R_strain	aPCL_R_strain	pPCL_R_strain	aMCL_R_strain	mMCL_R_strain	pMCL_R_strain	aLCL_R_strain	mLCL_R_strain	pLCL_R_strain	aPCL_L_strain	pPCL_L_strain	aMCL_L_strain	aLCL_L_strain	femur_lat_meniscii_r.femur_lat_r.force.X	femur_lat_meniscii_r.femur_lat_r.force.Y	femur_lat_meniscii_r.femur_lat_r.force.Z	femur_lat_meniscii_r.femur_lat_r.torque.X	femur_lat_meniscii_r.femur_lat_r.torque.Y	femur_lat_meniscii_r.femur_lat_r.torque.Z	femur_lat_meniscii_r.meniscus_lat_r.force.X	femur_lat_meniscii_r.meniscus_lat_r.force.Y	femur_lat_meniscii_r.meniscus_lat_r.force.Z	femur_lat_meniscii_r.meniscus_lat_r.torque.X	femur_lat_meniscii_r.meniscus_lat_r.torque.Y	femur_lat_meniscii_r.meniscus_lat_r.torque.Z	femur_med_meniscii_r.femur_med_r.force.X	femur_med_meniscii_r.femur_med_r.force.Y	femur_med_meniscii_r.femur_med_r.force.Z	femur_med_meniscii_r.femur_med_r.torque.X	femur_med_meniscii_r.femur_med_r.torque.Y	femur_med_meniscii_r.femur_med_r.torque.Z	femur_med_meniscii_r.meniscus_med_r.force.X	femur_med_meniscii_r.meniscus_med_r.force.Y	femur_med_meniscii_r.meniscus_med_r.force.Z	femur_med_meniscii_r.meniscus_med_r.torque.X	femur_med_meniscii_r.meniscus_med_r.torque.Y	femur_med_meniscii_r.meniscus_med_r.torque.Z	femur_med_tibia_r.tibia_upper_r.force.X	femur_med_tibia_r.tibia_upper_r.force.Y	femur_med_tibia_r.tibia_upper_r.force.Z	femur_med_tibia_r.tibia_upper_r.torque.X	femur_med_tibia_r.tibia_upper_r.torque.Y	femur_med_tibia_r.tibia_upper_r.torque.Z	femur_med_tibia_r.femur_med_r.force.X	femur_med_tibia_r.femur_med_r.force.Y	femur_med_tibia_r.femur_med_r.force.Z	femur_med_tibia_r.femur_med_r.torque.X	femur_med_tibia_r.femur_med_r.torque.Y	femur_med_tibia_r.femur_med_r.torque.Z	femur_lat_tibia_r.tibia_upper_r.force.X	femur_lat_tibia_r.tibia_upper_r.force.Y	femur_lat_tibia_r.tibia_upper_r.force.Z	femur_lat_tibia_r.tibia_upper_r.torque.X	femur_lat_tibia_r.tibia_upper_r.torque.Y	femur_lat_tibia_r.tibia_upper_r.torque.Z	femur_lat_tibia_r.femur_lat_r.force.X	femur_lat_tibia_r.femur_lat_r.force.Y	femur_lat_tibia_r.femur_lat_r.force.Z	femur_lat_tibia_r.femur_lat_r.torque.X	femur_lat_tibia_r.femur_lat_r.torque.Y	femur_lat_tibia_r.femur_lat_r.torque.Z	femur_lat_meniscii_force_r	femur_med_meniscii_force_r	femur_lat_tibia_force_r	femur_med_tibia_force_r
      0.10980815	      0.00849529	      0.00778380	     29.00113108	     10.15260462	    -12.38574795	      0.00000000	     59.10231026	      0.00000000	      0.00000000	    -37.15648136	      0.00000000	      0.00000000	      0.00000000	      0.00000000	      0.00000000	      0.00000001	      0.00000000	      0.03256200	      0.02546838	      0.03101777	      0.03017804	      0.05732645	      0.05954980	      0.05879710	      0.05331144	      0.05021706	      0.04661846	      0.01525851	      0.01651186	      0.06550154	      0.04489616	      0.05020069	      0.01634897	     -0.00249332	      0.00971094	     -0.04498897	     -0.00407561	      0.00117660	     -0.04762233	     -0.10833963	     -0.10936081	      0.00000079	     -0.32847694	      0.00000060	     -0.00000086	     42.33785550	    247.12204200	     37.78593985	    -21.51447699	      1.09573967	     16.46145101	    -42.33785550	   -247.12204200	    -37.78593985	      7.58157958	     -1.57583148	      2.28971065	    -25.50940329	     50.79843557	      6.68736611	     -1.54751258	      0.59779032	    -10.45510688	     25.50940329	    -50.79843557	     -6.68736611	     -0.90364574	     -0.61411548	      1.22900905	    -95.39802037	   -510.49253800	    117.10773737	    -12.12286388	      2.43846621	      0.77199128	     95.39802037	    510.49253800	   -117.10773737	     57.95902189	     -1.42187885	     40.99842548	    -42.34085875	   -162.14924184	    -41.43987577	      5.53099471	     -1.53505871	      0.35668082	     42.34085875	    162.14924184	     41.43987577	    -21.03765459	      1.01705066	     17.51402689	    253.55388954	     57.23575437	    172.63368226	    532.36982991
      0.11087150	      0.00857425	      0.00793262	     29.49012546	      9.22975789	    -12.98729814	     27.11933244	     60.81485209	      0.00000000	      0.00000000	    -38.30569294	      0.00000000	      0.00000000	      0.00000000	      0.00000000	      0.00000000	      0.00000001	      0.00000000	      0.03253767	      0.02543011	      0.03109878	      0.03023213	      0.05736772	      0.05954401	      0.05874239	      0.05330266	      0.05017726	      0.04654847	      0.01525851	      0.01651186	      0.06550154	      0.04489616	      0.04941613	      0.01482154	      0.00011181	      0.01152075	     -0.04430146	     -0.00417254	      0.00024507	     -0.04777918	     -0.10904634	     -0.11069788	      0.00000079	     -0.32847694	      0.00000060	     -0.00000086	     42.41484781	    249.82688437	     36.74798482	    -21.14369021	      1.08975357	     16.45116765	    -42.41484781	   -249.82688437	    -36.74798482	      7.60287774	     -1.56369183	      2.39977130	    -24.61640429	     51.79928057	      7.15123176	     -1.71127731	      0.57034234	    -10.08490951	     24.61640429	    -51.79928057	     -7.15123176	     -0.91730130	     -0.59553143	      1.21911143	   -100.85509240	   -511.75913030	    117.94011694	    -12.18252944	      2.56001080	      0.70598392	    100.85509240	    511.75913030	   -117.94011694	     58.31988020	     -1.52227217	     43.25072164	    -40.63268988	   -155.01977849	    -39.16571207	      5.25647270	     -1.47595568	      0.38794586	     40.63268988	    155.01977849	     39.16571207	    -19.91504880	      0.98016223	     16.78205136	    256.05254511	     57.79509446	    164.97302874	    534.77007049
      0.11193485	      0.00865961	      0.00808747	     29.98289776	      8.40501811	    -13.53571935	     24.73795487	     57.08761929	      0.00000000	      0.00000000	      0.00000000	      0.00000000	      0.00000000	      0.00000000	      0.00000000	      0.00000000	      0.00000001	      0.00000000	      0.03251257	      0.02539118	      0.03117393	      0.03027954	      0.05740519	      0.05953372	      0.05868324	      0.05328933	      0.05013254	      0.04647333	      0.01525851	      0.01651186	      0.06550154	      0.04489616	      0.04860640	      0.01326823	      0.00252854	      0.01310707	     -0.04367716	     -0.00434467	     -0.00076219	     -0.04801731	     -0.10984051	     -0.11213358	      0.00000079	     -0.32847694	      0.00000060	     -0.00000086	     47.22578555	    262.80894020	     34.90463584	    -20.67986666	      1.18818380	     18.37189869	    -47.22578555	   -262.80894020	    -34.90463584	      7.86048528	     -1.65696579	      2.50227563	    -22.67365851	     53.47037032	      7.62025833	     -1.85990554	      0.52440385	     -9.26385673	     22.67365851	    -53.47037032	     -7.62025833	     -0.94660049	     -0.56066850	      1.16771714	   -113.20298215	   -530.74252367	    123.58089906	    -12.69981856	      2.83047630	      0.53977109	    113.20298215	    530.74252367	   -123.58089906	     61.01456679	     -1.73249410	     48.43316462	    -42.44482572	   -153.26939890	    -38.15793537	      5.16009234	     -1.51512592	      0.34384545	     42.44482572	    153.26939890	     38.15793537	    -19.44282763	      1.02104703	     17.52806975	    269.29008053	     58.57681819	    163.55152063	    556.57414619
      0.11299819	      0.00875314	      0.00824647	     30.47974895	      9.16435736	    -12.54079844	     25.46156814	     59.86031283	      0.00000000	      0.00000000	      0.00000000	      0.00000000	      0.00000000	      0.00000000	      0.00000000	      0.00000000	      0.00000001	      0.00000000	      0.03248892	      0.02535363	      0.03124419	      0.03032125	      0.05744076	      0.05952075	      0.05862148	      0.05327356	      0.05008506	      0.04639519	      0.01525851	      0.01651186	      0.06550154	      0.04489616	      0.04784374	      0.01176970	      0.00478806	      0.01450250	     -0.04308468	     -0.00456160	     -0.00181385	     -0.04829892	     -0.11068343	     -0.11362637	      0.00000079	     -0.32847694	      0.00000060	     -0.00000086	     46.30072415	    257.01071378	     35.18490268	    -20.65729815	      1.14964962	     17.96951123	    -46.30072415	   -257.01071378	    -35.18490268	      7.71022753	     -1.62462413	      2.53736037	    -20.17422094	     51.94534106	      8.22268176	     -2.14603000	      0.46378744	     -8.22945258	     20.17422094	    -51.94534106	     -8.22268176	     -0.89568574	     -0.51371298	      1.08204645	   -127.94210986	   -551.85853653	    127.97399391	    -13.19085382	      3.13301302	      0.32822447	    127.94210986	    551.85853653	   -127.97399391	     63.21122377	     -1.98939943	     54.61125483	    -44.19981557	   -152.91422334	    -38.37415878	      5.14769122	     -1.56786965	      0.31854203	     44.19981557	    152.91422334	     38.37415878	    -19.51934958	      1.06225196	     18.24970305	    263.50757376	     56.32876834	    163.73441746	    580.77049765
